<?xml version="1.0" encoding="utf-8"?>
<!-- Generator: Adobe Illustrator 22.0.0, SVG Export Plug-In . SVG Version: 6.00 Build 0)  -->
<svg version="1.1" id="Layer_2_1_" xmlns="http://www.w3.org/2000/svg" xmlns:xlink="http://www.w3.org/1999/xlink" x="0px" y="0px"
	 viewBox="0 0 195 163" style="enable-background:new 0 0 195 163;" xml:space="preserve">
<style type="text/css">
	.st0{fill:#F7A8AA;}
	.st1{fill:#F6A7AA;}
	.st2{fill:#FAC6C5;}
	.st3{fill:#FCDDDB;}
	.st4{fill:#F59298;}
	.st5{fill:#231F20;}
</style>
<g>
	<g>
		<path class="st0" d="M184.4,53.5c-2.4-3.9-9.3-5.7-14.7-4.7c-19.8,4.6-46.5-1.7-53.7-5.9c-0.5,0,1.1-3.9,0.1-5.4
			c1.5-1,2-1.6,3.9-1.1c3.4,1.5,7.6,0.9,11,0.4c-2-3.9-4-11.5-7-15.9c-2.9,2.4-7.4,4.3-10.3,6.3c-5.4-14.6-23.7-17.2-38.5-8.8
			c-0.4,0.2-0.8,0.2-0.8,0.2s-4-8.4-5.7-12.3c-5.3,3.1-9.9,7.4-11.9,7.4c-4,0-8.8,0-12.7-0.5c0,6.8,2.6,14.7,2.9,20.6
			c-5.9,5.9-11.7,11.7-15.6,19.1c-4.3-1-9.1-1.7-13.6,0.2c-2.8,1.2-6.1,4.7-5,8.6c0.6,2.2,3.4,4.5,8.8,5.9
			C11.2,77.6,5.9,98.7,15.4,106c-2.4,2.4-5.3,4.7-6.2,7.9c-1.1,4.2,1.3,5.7,4.2,6.3c5.4,1,9.3-1.7,13.3-4.1c8.4,5,14.1,4.6,23.9,5.1
			c1,0,3.3,2.9,3.3,2.9s-6.6-0.7-10,0.3c-4.6,1.4-8.6,5.7-5.4,9.4c4.7,5.6,13.8,7.6,22,5.6c5,5.3,2.7,14-5.7,17.5
			c7.3-0.5,15.8-5.4,16.7-15.5c0.2-1.9-0.9-5-2.4-6.5c-1-1-2.3-2.4-2.3-2.4s4.1-7.8-4.4-12.2c3.4-0.7,9.8-3.4,9.8-3.4s2.6,3,4.9,3.4
			c2.5,0.4,5.4-1,6.4-3.4c1.4-3.6-2.9-6.4-2.9-6.4l3.4-5.4c0,0,3,2.8,4.3,5c4.2,7,5,14,8.9,20.9c2,3.4,5.4,6.2,8.8,7.7
			c2.9,1,6.1,1.2,9.4,0.6c5.5-1,9.9-2.8,13-4.7c21.8-13,37.1-30,50.4-54.1C182.1,74,189.3,61.3,184.4,53.5z M122.4,24.4
			c0,0,1.3,2.3,2,3.9c1,2.4,2.9,7.1,2.9,7.1l-3.9-0.7l-3.7-2.6c0,0-0.5,1.9-2.6,3.5c-1-2.9,1.1-4.3-1.8-7.5
			C117.6,26.6,122.4,24.4,122.4,24.4z M68.6,141.4c0.9,5.2-3.7,10.5-6.9,12.5c2.8-4.3,5.5-6.2,2.3-15.1c-1.3-3.5-4.4-6-7.6-8.1
			c-1-0.7-2.3-1.1-3.8-1.5c-1.6-0.4-3.4,0.8-4.9,2.3c0,0,4.6,2.3,8.6,3c2.3,3-2.3,3.1-2.3,3.1c-0.5,0.5-13.2-1.3-12.4-7.5
			c0.3-2.4,5.1-6.9,14.7-3.2C61.7,129,67.8,136.5,68.6,141.4z M63.2,123.1c2.4,1.1,2.4,3.9,2.4,6.4c0,0.5-0.5,0.5-1,1
			c-1.5-2.7-4-4-6.4-5.9c-0.5-0.4-0.8-0.6-0.3-1.1C59.5,122,61.5,122.2,63.2,123.1z M81.1,114.7c-0.9,3.4-4.1,2.8-4.4,1.1
			c-0.3-1.5,1.6-2,2.2-2.7C79.4,113.4,81.2,114.2,81.1,114.7z M99.6,123.7c-5.3-15.8-19.9-30.3-27-34.5c-0.4-0.2-1.3,1.1-1.3,1.1
			s6.4,6,7.4,10.4c1,3.9-1.2,8.1-3.7,11c-9.8,9.3-23,7.5-35.6,6.6c-3.9-0.3-9.7-2.9-6.7-8.8c-4.4,3.4-11.2,9.8-16.2,7.8
			c-1-0.4-2.4-2.8-1.4-5.1c1.8-3.8,7.8-9.7,13-12.3c0.3-0.5-0.4-1.5-2.3-0.6c-2,0.9-5.9,4.7-7.5,3.9c-8.9-4.4-3.2-20.8-0.3-26.2
			c3.6-6.7,8.3-7.9,13.2-9.4c-5.8-1-10.3-1.6-13.2-4.6c-1.5-2-0.8-3.5,0.7-5.4c1.5-1.5,3.1-2.5,5.2-3.1c2-0.6,3.7-0.3,5.6,0.1
			c4.8,1,5.1,3.5,7.5,3c-0.5-1.1-3-3.4-2.5-4.4c2.4-4.9,6.2-10.2,11.6-14.6c0.7-0.6,1.2-0.7,2.2-0.7c1.5,0.5,0.9,2,1.8,3.4
			c1.5,2.5,5.5,2.4,7.9,0.5c4.9-3.9,6.5-11.2,8.5-17.1c0-0.5,1.6-3.6-1.1-2.7c-1.3,5.4-3.4,9.8-6.4,14.7c-1.5,2-3.2,3.7-5.6,2.8
			c-0.5-0.5-1.5-0.8-1.7-2.3c-1-7-2.4-20.1-2.4-20.1s6.8,0.9,9.4,0.3c1.5-0.3,4.9-4.4,8.3-5.8c2.4,3.4,4.7,6.7,6.8,10
			c9.8-4.4,21.3-7.9,31-0.6c3.4,2.9,7.1,6.6,8.2,9.9c0.9,2.5,1.4,8.6,0.8,13.2c8.3,4.4,16.5,6.9,25.8,8.7c4.1,0.8,7.3,1.2,11.3,1.5
			c2,0.2,6.7,0.8,16-0.8c-19.1,3.9-34.5,16.2-47.4,31.1c-6.4,7.3-17.8,25.2-19.3,31.7C99.6,119,99.5,120.4,99.6,123.7z M177.6,75.2
			c-3.2,9.4-11.4,21.8-19.9,31c-7.9,8.6-30.3,29.2-46.1,28.3c-7.4-0.4-10.3-8-7.6-16.5c5-16.1,27.3-48.8,55.6-60.5
			c5.9-2.4,16.2-3.5,18.6-0.4C181.4,61.6,179.6,69.3,177.6,75.2z"/>
	</g>
	<g>
		<g>
			<path class="st0" d="M184.4,53.5c-2.4-3.9-9.3-5.7-14.7-4.7c-19.8,4.6-46.5-1.7-53.7-5.9c-0.5,0,1.1-3.9,0.1-5.4
				c1.5-1,2-1.6,3.9-1.1c3.4,1.5,7.6,0.9,11,0.4c-2-3.9-4-11.5-7-15.9c-2.9,2.4-7.4,4.3-10.3,6.3c-5.4-14.6-23.7-17.2-38.5-8.8
				c-0.4,0.2-0.8,0.2-0.8,0.2s-4-8.4-5.7-12.3c-5.3,3.1-9.9,7.4-11.9,7.4c-4,0-8.8,0-12.7-0.5c0,6.8,2.6,14.7,2.9,20.6
				c-5.9,5.9-11.7,11.7-15.6,19.1c-4.3-1-9.1-1.7-13.6,0.2c-2.8,1.2-6.1,4.7-5,8.6c0.6,2.2,3.4,4.5,8.8,5.9
				C11.2,77.6,5.9,98.7,15.4,106c-2.4,2.4-5.3,4.7-6.2,7.9c-1.1,4.2,1.3,5.7,4.2,6.3c5.4,1,9.3-1.7,13.3-4.1
				c8.4,5,14.1,4.6,23.9,5.1c1,0,3.3,2.9,3.3,2.9s-6.6-0.7-10,0.3c-4.6,1.4-8.6,5.7-5.4,9.4c4.7,5.6,13.8,7.6,22,5.6
				c5,5.3,2.7,14-5.7,17.5c7.3-0.5,15.8-5.4,16.7-15.5c0.2-1.9-0.9-5-2.4-6.5c-1-1-2.3-2.4-2.3-2.4s4.1-7.8-4.4-12.2
				c3.4-0.7,9.8-3.4,9.8-3.4s2.6,3,4.9,3.4c2.5,0.4,5.4-1,6.4-3.4c1.4-3.6-2.9-6.4-2.9-6.4l3.4-5.4c0,0,3,2.8,4.3,5
				c4.2,7,5,14,8.9,20.9c2,3.4,5.4,6.2,8.8,7.7c2.9,1,6.1,1.2,9.4,0.6c5.5-1,9.9-2.8,13-4.7c21.8-13,37.1-30,50.4-54.1
				C182.1,74,189.3,61.3,184.4,53.5z M122.4,24.4c0,0,1.3,2.3,2,3.9c1,2.4,2.9,7.1,2.9,7.1l-3.9-0.7l-3.7-2.6c0,0-0.5,1.9-2.6,3.5
				c-1-2.9,1.1-4.3-1.8-7.5C117.6,26.6,122.4,24.4,122.4,24.4z M68.6,141.4c0.9,5.2-3.7,10.5-6.9,12.5c2.8-4.3,5.5-6.2,2.3-15.1
				c-1.3-3.5-4.4-6-7.6-8.1c-1-0.7-2.3-1.1-3.8-1.5c-1.6-0.4-3.4,0.8-4.9,2.3c0,0,4.6,2.3,8.6,3c2.3,3-2.3,3.1-2.3,3.1
				c-0.5,0.5-13.2-1.3-12.4-7.5c0.3-2.4,5.1-6.9,14.7-3.2C61.7,129,67.8,136.5,68.6,141.4z M63.2,123.1c2.4,1.1,2.4,3.9,2.4,6.4
				c0,0.5-0.5,0.5-1,1c-1.5-2.7-4-4-6.4-5.9c-0.5-0.4-0.8-0.6-0.3-1.1C59.5,122,61.5,122.2,63.2,123.1z M81.1,114.7
				c-0.9,3.4-4.1,2.8-4.4,1.1c-0.3-1.5,1.6-2,2.2-2.7C79.4,113.4,81.2,114.2,81.1,114.7z M99.6,123.7c-5.3-15.8-19.9-30.3-27-34.5
				c-0.4-0.2-1.3,1.1-1.3,1.1s6.4,6,7.4,10.4c1,3.9-1.2,8.1-3.7,11c-9.8,9.3-23,7.5-35.6,6.6c-3.9-0.3-9.7-2.9-6.7-8.8
				c-4.4,3.4-11.2,9.8-16.2,7.8c-1-0.4-2.4-2.8-1.4-5.1c1.8-3.8,7.8-9.7,13-12.3c0.3-0.5-0.4-1.5-2.3-0.6c-2,0.9-5.9,4.7-7.5,3.9
				c-8.9-4.4-3.2-20.8-0.3-26.2c3.6-6.7,8.3-7.9,13.2-9.4c-5.8-1-10.3-1.6-13.2-4.6c-1.5-2-0.8-3.5,0.7-5.4c1.5-1.5,3.1-2.5,5.2-3.1
				c2-0.6,3.7-0.3,5.6,0.1c4.8,1,5.1,3.5,7.5,3c-0.5-1.1-3-3.4-2.5-4.4c2.4-4.9,6.2-10.2,11.6-14.6c0.7-0.6,1.2-0.7,2.2-0.7
				c1.5,0.5,0.9,2,1.8,3.4c1.5,2.5,5.5,2.4,7.9,0.5c4.9-3.9,6.5-11.2,8.5-17.1c0-0.5,1.6-3.6-1.1-2.7c-1.3,5.4-3.4,9.8-6.4,14.7
				c-1.5,2-3.2,3.7-5.6,2.8c-0.5-0.5-1.5-0.8-1.7-2.3c-1-7-2.4-20.1-2.4-20.1s6.8,0.9,9.4,0.3c1.5-0.3,4.9-4.4,8.3-5.8
				c2.4,3.4,4.7,6.7,6.8,10c9.8-4.4,21.3-7.9,31-0.6c3.4,2.9,7.1,6.6,8.2,9.9c0.9,2.5,1.4,8.6,0.8,13.2c8.3,4.4,16.5,6.9,25.8,8.7
				c4.1,0.8,7.3,1.2,11.3,1.5c2,0.2,6.7,0.8,16-0.8c-19.1,3.9-34.5,16.2-47.4,31.1c-6.4,7.3-17.8,25.2-19.3,31.7
				C99.6,119,99.5,120.4,99.6,123.7z M177.6,75.2c-3.2,9.4-11.4,21.8-19.9,31c-7.9,8.6-30.3,29.2-46.1,28.3
				c-7.4-0.4-10.3-8-7.6-16.5c5-16.1,27.3-48.8,55.6-60.5c5.9-2.4,16.2-3.5,18.6-0.4C181.4,61.6,179.6,69.3,177.6,75.2z"/>
		</g>
		<path class="st1" d="M184.4,53.5c-2.4-3.9-9.3-5.7-14.7-4.7c-19.8,4.6-46.5-1.7-53.7-5.9c-0.5,0,1.1-3.9,0.1-5.4
			c1.5-1,2-1.6,3.9-1.1c3.4,1.5,7.6,0.9,11,0.4c-2-3.9-4-11.5-7-15.9c-2.9,2.4-7.4,4.3-10.3,6.3c-5.4-14.6-23.7-17.2-38.5-8.8
			c-0.4,0.2-0.8,0.2-0.8,0.2s-4-8.4-5.7-12.3c-5.3,3.1-9.9,7.4-11.9,7.4c-4,0-8.8,0-12.7-0.5c0,6.8,2.6,14.7,2.9,20.6
			c-5.9,5.9-11.7,11.7-15.6,19.1c-4.3-1-9.1-1.7-13.6,0.2c-2.8,1.2-6.1,4.7-5,8.6c0.6,2.2,3.4,4.5,8.8,5.9
			C11.2,77.6,5.9,98.7,15.4,106c-2.4,2.4-5.3,4.7-6.2,7.9c-1.1,4.2,1.3,5.7,4.2,6.3c5.4,1,9.3-1.7,13.3-4.1c8.4,5,14.1,4.6,23.9,5.1
			c1,0,3.3,2.9,3.3,2.9s-6.6-0.7-10,0.3c-4.6,1.4-8.6,5.7-5.4,9.4c4.7,5.6,13.8,7.6,22,5.6c5,5.3,2.7,14-5.7,17.5
			c7.3-0.5,15.8-5.4,16.7-15.5c0.2-1.9-0.9-5-2.4-6.5c-1-1-2.3-2.4-2.3-2.4s4.1-7.8-4.4-12.2c3.4-0.7,9.8-3.4,9.8-3.4s2.6,3,4.9,3.4
			c2.5,0.4,5.4-1,6.4-3.4c1.4-3.6-2.9-6.4-2.9-6.4l3.4-5.4c0,0,3,2.8,4.3,5c4.2,7,5,14,8.9,20.9c2,3.4,5.4,6.2,8.8,7.7
			c2.9,1,6.1,1.2,9.4,0.6c5.5-1,9.9-2.8,13-4.7c21.8-13,37.1-30,50.4-54.1C182.1,74,189.3,61.3,184.4,53.5z M177.6,75.2
			c-3.2,9.4-11.4,21.8-19.9,31c-7.9,8.6-30.3,29.2-46.1,28.3c-7.4-0.4-10.3-8-7.6-16.5c5-16.1,27.3-48.8,55.6-60.5
			c5.9-2.4,16.2-3.5,18.6-0.4C181.4,61.6,179.6,69.3,177.6,75.2z"/>
		<path class="st2" d="M105.4,134.6c7.4,8.1,32.6-3.1,52.2-26.3c19.4-23,28.9-46.9,23.3-53.6c-4.9-5.9-34.8,1.9-56.2,26.4
			C104.9,104.1,95.7,124,105.4,134.6z"/>
		<g>
			<path class="st3" d="M87.7,36c-1.1-2.9-1.8-8.4,0.6-9.4c1.7-0.2,2.8,0.3,3.7-0.6c0.8-0.9,1.2-2.5,3.1-3.3
				c5.9-2.5,12.7,1,15.1,6.4c2.4,5.4,2.4,13-3,15.4C100.3,47.6,90.6,43.4,87.7,36z"/>
			<path class="st3" d="M171.3,60.2c0-1.5-0.8-3.2,1.1-4.2c2.4-0.5,5.1,0.7,5.9,2.5c6.3,12.9-9.9,34.9-20,47
				c-8.9,10.7-21.7,20.6-35.4,27c-5.4,2-12.6,4.5-17-0.4c2.9-5.4,10.3-1.8,15.1-3.9c1.9-0.8,8.4-5.9,12.2-9.5
				c-1,2,15.8-10.9,23.1-21.2c5.4-6.8,10.3-13.4,13.8-20.7c1-2,3.7-1.2,4.6-3.2c0-0.5,1.1-1.6,0.1-1.6c-2.4,0-3.5,1.5-5.5,2.7
				c0-2,2.3-3.3,3.7-5.9c-0.5,0.5-1.1-1.5,0.1-4C173,62.8,171.3,63.2,171.3,60.2z"/>
			<path class="st3" d="M147.6,74.3c-11.7,10.1-22.6,24.9-30.1,39.2c-3.3,6.4-3.3,13.5-3.3,13.1c-3.9-6.4,1-17.1,3.2-20.6
				c11.6-18.3,28.3-41.5,48.7-42.2C159.8,65.2,152.4,70.2,147.6,74.3z"/>
		</g>
		<path class="st4" d="M34.5,106c4.9-4.9,10.3-3.2,11.5-2.2c1.2,1,3.5,6.2,5.4,6.9c1.9,0.7,7.8,3.7,14.6,0.7c6.8-3.1,9.4-6,9.6-9.4
			c0.1-3.5,1.2-3.2-2.9-6.8c-4.2-3.6-4.4-2.9-6.7-4.7c-2.2-1.8-2.4-3.9-0.7-6.2c1.7-2.4,6.2-1.8,9.7,0.3c3.5,2.1,10,7.1,10.8,7.8
			c0.8,0.7,9.7,8.2,12.2,8.2s3.1,0.3,5.5-1.4s1.8-0.7,5-2.9c3.2-2.2,4.6-3.3,4.6-3.3l-6.5,12.9l-5.1,13.9l-1.7,5.8l-5.8-8.3
			l-2.8-6.7l-5-4.2l-3.2-3.2l-2.8,3.1l-4.3,7.1L58.5,120l-12.1-0.3l-10.5-1l-5.7-4.7"/>
		<path class="st4" d="M40.9,70.6c1.4,6.5-14,6.4-12.3,15.9c0.6,3.7,3.3,1.7,4.7,3.5c1.5,1.8,1.8,3.7,0.9,5.4
			c-0.8,1.7-2.2,3-3.3,3.3c-2,0.5-1.7-0.4-3.3,0.3c-1.7,0.7-2.5,1.7-2.5,1.7l-4.7,3.1l-2.1,1.5l-4.3-3.2l-2.1-5.1l0.8-10l2.2-7.6
			l4-6.9l3.9-3.7l5.3-0.7c0,0,2.3-0.4,5.4-0.4C38.1,67.5,40.4,68.4,40.9,70.6z"/>
		<path class="st4" d="M35.1,55.7l11.3,10.5c0,0,1.8,1.9,3.8,2.2s4,0.8,5.7-2.9c1.7-3.7,1.4-5.9,1.5-7.7s-0.1-5.2,0.2-7.6
			c0.2-2.4,1.3-4.5,2.7-5.6c1.4-1.1,1.6-2.5,4.6-4.5c2.9-2,3.7-2.8,4.9-4.3c1.1-1.5,1.4-5.8,1.2-6.8s0.1-4.6-0.2-5.6
			c-0.3-1-0.7-2.5-1.6-2.7c-0.9-0.2-1.1,0-1.5,1.1c-0.4,1.1-1.6,3.2-1.6,3.2L65,26.7l-2,3.5l-1.9,3.9l-0.7,1.6L57.7,39l-2.4,1.5
			l-2.5,0.5l-2.7-4.2l-2.4-0.6l-2.4,1l-5.6,6.3l-6.4,8.2l0.3,2.4"/>
		<g>
			<path class="st5" d="M64.5,103.7c1.9-0.2,3.4-2.9,4.3-4.1C67.1,98.4,63.5,101.2,64.5,103.7z"/>
			<path class="st5" d="M151.7,90.8c-7.6,9.9-19.4,24.4-19.1,33.3c1.7-7.5,10-9.3,21.7-24.8c6.2-8.1,8.4-9.6,16.4-23.7
				c0.3-0.4,5.3-2,4.1-3.5C165.1,75.6,155.8,85.6,151.7,90.8z"/>
			<path class="st5" d="M184.4,53.5c-2.4-3.9-9.3-5.7-14.7-4.7c-19.8,4.6-46.5-1.7-53.7-5.9c-0.5,0,1.1-3.9,0.1-5.4
				c1.5-1,2-1.6,3.9-1.1c3.4,1.5,7.6,0.9,11,0.4c-2-3.9-4-11.5-7-15.9c-2.9,2.4-7.4,4.3-10.3,6.3c-5.4-14.6-23.7-17.2-38.5-8.8
				c-0.4,0.2-0.8,0.2-0.8,0.2s-4-8.4-5.7-12.3c-5.3,3.1-9.9,7.4-11.9,7.4c-4,0-8.8,0-12.7-0.5c0,6.8,2.6,14.7,2.9,20.6
				c-5.9,5.9-11.7,11.7-15.6,19.1c-4.3-1-9.1-1.7-13.6,0.2c-2.8,1.2-6.1,4.7-5,8.6c0.6,2.2,3.4,4.5,8.8,5.9
				C11.2,77.6,5.9,98.7,15.4,106c-2.4,2.4-5.3,4.7-6.2,7.9c-1.1,4.2,1.3,5.7,4.2,6.3c5.4,1,9.3-1.7,13.3-4.1
				c8.4,5,14.1,4.6,23.9,5.1c1,0,3.3,2.9,3.3,2.9s-6.6-0.7-10,0.3c-4.6,1.4-8.6,5.7-5.4,9.4c4.7,5.6,13.8,7.6,22,5.6
				c5,5.3,2.7,14-5.7,17.5c7.3-0.5,15.8-5.4,16.7-15.5c0.2-1.9-0.9-5-2.4-6.5c-1-1-2.3-2.4-2.3-2.4s4.1-7.8-4.4-12.2
				c3.4-0.7,9.8-3.4,9.8-3.4s2.6,3,4.9,3.4c2.5,0.4,5.4-1,6.4-3.4c1.4-3.6-2.9-6.4-2.9-6.4l3.4-5.4c0,0,3,2.8,4.3,5
				c4.2,7,5,14,8.9,20.9c2,3.4,5.4,6.2,8.8,7.7c2.9,1,6.1,1.2,9.4,0.6c5.5-1,9.9-2.8,13-4.7c21.8-13,37.1-30,50.4-54.1
				C182.1,74,189.3,61.3,184.4,53.5z M122.4,24.4c0,0,1.3,2.3,2,3.9c1,2.4,2.9,7.1,2.9,7.1l-3.9-0.7l-3.7-2.6c0,0-0.5,1.9-2.6,3.5
				c-1-2.9,1.1-4.3-1.8-7.5C117.6,26.6,122.4,24.4,122.4,24.4z M68.6,141.4c0.9,5.2-3.7,10.5-6.9,12.5c2.8-4.3,5.5-6.2,2.3-15.1
				c-1.3-3.5-4.4-6-7.6-8.1c-1-0.7-2.3-1.1-3.8-1.5c-1.6-0.4-3.4,0.8-4.9,2.3c0,0,4.6,2.3,8.6,3c2.3,3-2.3,3.1-2.3,3.1
				c-0.5,0.5-13.2-1.3-12.4-7.5c0.3-2.4,5.1-6.9,14.7-3.2C61.7,129,67.8,136.5,68.6,141.4z M63.2,123.1c2.4,1.1,2.4,3.9,2.4,6.4
				c0,0.5-0.5,0.5-1,1c-1.5-2.7-4-4-6.4-5.9c-0.5-0.4-0.8-0.6-0.3-1.1C59.5,122,61.5,122.2,63.2,123.1z M81.1,114.7
				c-0.9,3.4-4.1,2.8-4.4,1.1c-0.3-1.5,1.6-2,2.2-2.7C79.4,113.4,81.2,114.2,81.1,114.7z M99.6,123.7c-5.3-15.8-19.9-30.3-27-34.5
				c-0.4-0.2-1.3,1.1-1.3,1.1s6.4,6,7.4,10.4c1,3.9-1.2,8.1-3.7,11c-9.8,9.3-23,7.5-35.6,6.6c-3.9-0.3-9.7-2.9-6.7-8.8
				c-4.4,3.4-11.2,9.8-16.2,7.8c-1-0.4-2.4-2.8-1.4-5.1c1.8-3.8,7.8-9.7,13-12.3c0.3-0.5-0.4-1.5-2.3-0.6c-2,0.9-5.9,4.7-7.5,3.9
				c-8.9-4.4-3.2-20.8-0.3-26.2c3.6-6.7,8.3-7.9,13.2-9.4c-5.8-1-10.3-1.6-13.2-4.6c-1.5-2-0.8-3.5,0.7-5.4c1.5-1.5,3.1-2.5,5.2-3.1
				c2-0.6,3.7-0.3,5.6,0.1c4.8,1,5.1,3.5,7.5,3c-0.5-1.1-3-3.4-2.5-4.4c2.4-4.9,6.2-10.2,11.6-14.6c0.7-0.6,1.2-0.7,2.2-0.7
				c1.5,0.5,0.9,2,1.8,3.4c1.5,2.5,5.5,2.4,7.9,0.5c4.9-3.9,6.5-11.2,8.5-17.1c0-0.5,1.6-3.6-1.1-2.7c-1.3,5.4-3.4,9.8-6.4,14.7
				c-1.5,2-3.2,3.7-5.6,2.8c-0.5-0.5-1.5-0.8-1.7-2.3c-1-7-2.4-20.1-2.4-20.1s6.8,0.9,9.4,0.3c1.5-0.3,4.9-4.4,8.3-5.8
				c2.4,3.4,4.7,6.7,6.8,10c9.8-4.4,21.3-7.9,31-0.6c3.4,2.9,7.1,6.6,8.2,9.9c0.9,2.5,1.4,8.6,0.8,13.2c8.3,4.4,16.5,6.9,25.8,8.7
				c4.1,0.8,7.3,1.2,11.3,1.5c2,0.2,6.7,0.8,16-0.8c-19.1,3.9-34.5,16.2-47.4,31.1c-6.4,7.3-17.8,25.2-19.3,31.7
				C99.6,119,99.5,120.4,99.6,123.7z M177.6,75.2c-3.2,9.4-11.4,21.8-19.9,31c-7.9,8.6-30.3,29.2-46.1,28.3
				c-7.4-0.4-10.3-8-7.6-16.5c5-16.1,27.3-48.8,55.6-60.5c5.9-2.4,16.2-3.5,18.6-0.4C181.4,61.6,179.6,69.3,177.6,75.2z"/>
			<path class="st5" d="M156.1,74.7c1.3-2.5,2.8-3.5,3.3-5.5c0.5-3.4,6.5-1.2,6.8-5.7c-10.2,1.6-23.1,13.9-31.6,24.4
				c-8.8,10.8-21.3,26.4-20.1,37.8c2-9.4,5.5-5.5,19.8-22.9C142.1,93.4,150.1,85.8,156.1,74.7z"/>
			<path class="st5" d="M108.1,33.6c-1.6-1.7-2.8,2.4-3.7,1.7c-3.1-2.3,1.7-10.4-4.3-11.4c-4.9-0.9-8.5,4.7-11.7,7.9
				c1.5,4.8,7.1-8.6,11-4.7c1.6,1.6,1.5,5,2.3,6.9c-2.8-1-5.9,3.3-4.7,6.9c0.4,1.1,1.7,1.9,2.3,1.3c1.1-0.7-0.6-1.3-0.7-1.6
				c-0.7-2.3,0.5-4,1.3-4.7c1.3-1.1,1.1,0.7,0.6,2.3c-0.3,1-1.1,1.6-0.9,2.3c1.8,1.5,3.1-4.6,3.1-4.6S106.6,37.5,108.1,33.6z"/>
			<path class="st5" d="M108.7,37.1c-0.5,0.5-1.2,0.8-1.4,1.8c-0.2,1.1-1.2,2.5-0.7,3.6c2.1,1.1,4.3-2.2,3.7-4.3
				C110.3,37.6,109.8,36.5,108.7,37.1z M109.2,39.6c-0.1,0.9-0.2,0.8-0.6,1.5c-0.4,0.7-0.6,0.1-0.7-0.5c-0.1-0.6,0.1-0.7,0.4-1.7
				c0.2-0.8,0.5-0.7,0.6-0.7C109.4,38.2,109.3,38.7,109.2,39.6z"/>
			<path class="st5" d="M93.3,132.8c-0.7,0-1.3,0-2,0v4.5h1.3v-1.3H93l0.7,1.3h1.4l-1-1.6C95.5,135.3,95.4,132.8,93.3,132.8z
				 M93.3,134.9h-0.9v-1h0.8C93.9,133.9,93.9,134.9,93.3,134.9z"/>
			<path class="st5" d="M92.7,130.4c-2.8,0.2-4.5,2.3-4.3,4.8c0.2,2.6,2.1,4.4,4.9,4.2c2.9-0.2,4.3-2.2,4.2-4.8
				C97.3,132.1,95.6,130.3,92.7,130.4z M93.2,138.3c-1.9,0.1-3.3-1.1-3.4-3.1c-0.1-1.9,1.1-3.4,3-3.5c2-0.1,3.2,1.1,3.3,3.1
				C96.3,136.8,95.2,138.2,93.2,138.3z"/>
		</g>
	</g>
</g>
</svg>
