<svg xmlns="http://www.w3.org/2000/svg" width="688" height="637.33">
  <path fill="#5e0c17" d="M142.5 349.2c-58.2-.1-58.34-.1-59.75.12-1.4.2-4.06.62-7.5 2.27-3.44 1.6-7.66 4.5-9.74 6.7-2 2.2-2 3.8-2.3 6.1-.3 2.3-1.1 5.2 3.1 9.6 4.2 4.3 13.5 10.1 102 11.7 88.6 1.6 256.6-1 343.1-2.1 86.6-1.1 91.8-.8 96.9-1.7 5.1-1 10.1-3.2 13.6-6.7s5.4-8.3 5.5-12c.2-3.7-1.5-6.3-3.7-8.1-2.2-1.8-5.1-2.9-8.1-3.7-3-.8-6.2-1.4-36.6-1.7-30.4-.3-87.9-.3-174.8-.4-86.9-.1-203.2-.3-261.4-.4z"/>
  <path fill="#035a31" d="M300 634.4c1.82-1.73 7.8-4.5 13.27-6.12 9.4-2.78 22.7-8.66 22.7-10.03 0-1.84-14.4-7.5-21.62-8.47-13.66-1.87-24.75-.03-33.9 5.62-4.33 2.67-8.62 4.85-9.54 4.85-.9 0-4.2 2.37-7.3 5.27-6.3 5.83-11 8.07-17 8.07-5 0-12.1-3-15.3-6.4-1.5-1.6-5.7-3.2-10.9-4.1-4.6-.8-10.1-2.7-12.3-4.3-5.3-3.8-5-4.6.4-1.3 6 3.6 9.9 3.3 20.1-1.4l8.7-4.1 9.7 2.9c8.5 2.6 10.5 2.7 15.7 1.3 3.3-.9 8.3-3 11.1-4.7l5.1-3.1-14.3-4.8c-7.9-2.7-16.8-5.1-19.9-5.4-3.1-.4-9-2.2-13.1-4.1-11-5.1-13.5-4.7-27.5 4.5-10.2 6.7-13.1 8-18 8-6.3 0-14.1-3.4-21.7-9.4-2.5-2-7.3-4.9-10.6-6.3-3.3-1.5-7.4-4.3-9.2-6.3l-3.3-3.5 6.6 2.9c7.6 3.3 21.4 4.8 26.9 2.9 2.8-1 7.5-.7 17.5 1.1 13.2 2.3 13.9 2.3 19.3 0 5.5-2.4 5.6-2.5 2.7-4-1.6-.9-8.3-2.8-14.8-4.2-6.5-1.4-15.6-4.4-20.2-6.7l-8.3-4.2-12.2 2.3c-15.6 2.9-20.5 2.1-28.3-5.1-6.5-6-8.1-8.6-14.7-23.5L111 533l7.2 6.8c4 3.77 8.07 6.86 9 6.86 5.1.02 15.7 6.74 19.57 12.34 3.55 5.18 4.9 6.1 10.15 6.9 8.3 1.23 9.66-.1 4.3-4.38-2.42-1.9-7.9-7.4-12.14-12.2-4.24-4.78-9.3-9.5-11.25-10.5-6.85-3.6-13.64-9.87-16.3-15-1.42-2.88-3.52-11.36-4.63-18.87-1.1-7.5-2.6-15.7-3.3-18.3-.64-2.55-1.22-6.13-1.22-7.95 0-2.6 1-1.63 4.78 4.8 2.66 4.45 8.3 12.5 12.6 17.9 6.8 8.6 8.17 11.25 10.66 21.34 3.23 13.15 7.23 19.95 18.2 30.93 8.1 8.1 24.03 17.47 28.5 16.77 2.6-.4 2.6-.6-.66-7.1-2.4-4.73-5.75-8.42-11.76-12.85-10.15-7.5-14.9-15.4-16.96-28.4-.8-5-2.06-10.3-2.8-11.6-.72-1.4-.95-2.5-.5-2.5 2.2 0 13 8.7 19.7 16 7.65 8.3 8.2 9.5 12.8 28.7.88 3.6 3.2 9.6 5.2 13.3 3.4 6.4 4.1 6.9 13.58 10.1 5.5 1.9 14.5 5.9 20 9 11.22 6.2 17.06 7.4 14.67 2.9-.8-1.5-6.7-6.6-13.1-11.4-8.6-6.5-12.2-10.1-13.9-14.1-1.3-3-4.8-8.2-7.8-11.6-5.5-6.2-10.6-14.7-10.6-17.6 0-.8 1.8 0 4 1.9s6.5 4.1 9.5 4.9c22.7 6.1 32.6 16.6 35.6 37.9.7 4.9 2.1 10.2 3.2 11.8 4.1 6.3 39.6 16.7 39.6 11.6 0-2.6-7.2-9.7-11.8-11.6-6.5-2.7-9.1-5.2-14.6-13.9-2.6-4-6.8-9.6-9.5-12.4l-4.9-5.1 7.7 3.4c13.5 6 22.9 11 25.1 13.6 1.2 1.3 4 6.4 6.3 11.3 5 10.6 11 15.8 18.4 15.8 7.9 0 22.3 3.5 31.1 7.4l8 3.6 7.9-3.6c8.9-4 23.3-7.4 31.4-7.4 7.5 0 12.9-5 19.7-18 6.1-11.7 6.8-12.2 26.9-21.4l10.5-4.8-5.5 5.9c-3 3.3-6.7 8.3-8.1 11.2-3.2 6.2-10.4 12.9-16.7 15.6-3.8 1.6-10.2 8.3-10.2 10.7 0 1.4 12.5.7 16.7-1l12.5-4.9c9.3-3.6 13.4-8.3 13.4-15.6 0-6 4.8-20.8 8.1-25.1 4.1-5.2 12.3-10 24.4-14.3 5.8-2.07 12-5.1 13.8-6.8l3.3-3-1 3.83c-1 4.2-7 13.4-11.1 17.1-1.5 1.22-4 5.3-5.7 8.9-2.5 5.4-5.4 8.3-14.8 15.25-13 9.5-16.8 14.16-11.6 14.1 1.6 0 6.3-1.8 10.3-4 12.1-6.6 20.7-10.4 25.7-11.33 2.6-.5 5.7-1.9 6.8-3.1 3.5-3.9 8.6-16.5 10.8-26.6 2.4-11.8 3.4-13.6 11.1-21.9 5.6-5.93 17.6-15.7 19.4-15.7.4 0-.1 2.5-1.2 5.5-1.1 3.1-1.9 7.4-2 9.7 0 2.3-1.68 7.7-3.7 12-2.87 6.1-5.8 9.6-12.9 15.4-10.3 8.4-17.3 19.1-12.9 19.9 6.7 1.1 26.93-12.5 35.93-24.1 6.4-8.3 8.6-13.1 11.75-25.8 1.84-7.5 3.8-11.2 10.8-20.2 4.7-6.07 10.3-14.17 12.4-18 4.6-8.3 5-6.4 1.8 10.8-6.1 33.9-7.4 36.5-21.1 44.3-3.8 2.2-9.7 7.4-13.4 12-3.7 4.5-9 9.9-11.8 11.9-5.94 4.4-4.7 5.9 3.8 4.6 4.4-.6 6.7-1.8 8.3-4.2 4.9-7.1 9.3-10.7 17-13.5 5.3-1.9 10.2-5.1 14.4-9.2l6.4-6.3-4.8 11c-5.5 12.9-8 16.66-15.3 23.26-7.03 6.4-12.4 7.25-27.5 4.4l-12.3-2.3-9.2 4.6c-5 2.54-11.9 5.03-15.2 5.53-5.6.9-18 4.3-20.4 5.7-.6.3 1.4 1.7 4.4 3.1 5.3 2.4 5.9 2.4 19.1 0 9.9-1.8 14.6-2.1 17.4-1.1 5.4 1.9 19.3.4 26.7-2.8 5.5-2.46 6.1-2.5 5-.5-.7 1.2-5.1 4.34-9.9 6.9-4.7 2.6-12.1 7.1-16.3 10-7 4.84-8.54 5.35-16 5.35-7.9 0-8.8-.36-19.44-7.7-13.2-9-15.8-9.33-28.3-3.63-4.9 2.2-10.9 4-13.5 4-2.55 0-10.7 2.2-18.2 4.9l-13.6 4.8 3.17 2.4c3.6 2.8 13.7 6.5 17.6 6.5 1.5 0 6.67-1.3 11.5-2.85l8.8-2.8 8.28 4.15c9.6 4.8 14 5.12 20 1.5 5.4-3.3 5.7-2.5.5 1.22-2.2 1.5-7.4 3.4-11.5 4.2-4.5.8-9.8 3-12.9 5.3-10.3 7.4-20.3 6.5-31.1-2.8-3.4-2.9-6.9-5.3-7.9-5.3s-5-2.1-8.8-4.7c-8.48-5.7-20.5-7.77-34.08-5.8-7.6 1.1-21.9 6.8-21.9 8.7 0 1.2 16.2 8.1 24.7 10.6 7.8 2.3 15.8 9.2 15.8 9.2h-15.5l-13.8-.08-9-7.8-8.72-7.4-8.7 7.4-9.1 7.55H296l3.7-3.3zm236.42-155.15s-18.05 18.5 0 0z"/>
  <path fill="none" stroke="#003566" stroke-width="5.16" d="M341.8 77.8v483.4"/>
  <path fill="#e3b224" d="M347.36 63.2l-6.1-3.48-6.33 3.04 1.44-6.87-4.86-5.1 7-.8 3.4-6.2 2.9 6.4 7 1.2-5.2 4.7zm42.9 3.27l-5.65-4.17-6.6 2.3 2.2-6.66-4.2-5.6 7.1.04 4-5.77 2.2 6.7 6.7 2.1-5.7 4.1zm41.7 9.68l-5-4.93-6.9 1.33 3.14-6.28-3.4-6.16 6.95 1.1 4.8-5.1 1.15 6.9 6.36 3-6.23 3.3zm39.3 15.55l-4.22-5.6-7.02.3 4.03-5.76-2.45-6.58 6.72 2.06 5.5-4.37.12 7.03 5.85 3.88-6.7 2.3zm36.66 21.65l-3.2-6.26-6.95-1 4.96-5-1.28-6.9 6.27 3.1 6.18-3.3-1.1 6.9 5.1 4.8-7 1.1zm33.2 27.1l-2.2-6.68-6.74-1.96 5.67-4.1-.22-7 5.7 4.1 6.62-2.4-2.14 6.7 4.3 5.6-7 .1zM570 171.5l-1.5-6.85-6.52-2.64 6.05-3.5.5-7 5.26 4.7 6.8-1.7-2.8 6.5 3.7 6-7-.6zm22.83 35.47l-.16-7.03-5.87-3.85 6.63-2.4 1.85-6.8 4.25 5.6 7.02-.4-4 5.7 2.5 6.5-6.74-2zm16.22 39.13l1.2-6.92-5.03-4.9 6.95-1.02 3.1-6.3 3.12 6.3 6.9 1.02-5.1 4.9 1.2 6.93-6.3-3.2zm22.35 43.55l-5.57-4.3-6.7 2.16 2.37-6.6-4.1-5.7 7 .2 4.16-5.6 1.98 6.8 6.67 2.2-5.8 4zm2.05 43.63l-5-4.93-6.9 1.33 3.13-6.28-3.4-6.15 6.96 1.04 4.8-5.2 1.15 6.9 6.3 2.9-6.3 3.2zM292.8 66.94l5.66-4.16 6.64 2.3-2.2-6.67 4.23-5.6-7.02.1-4-5.7-2.1 6.7-6.7 2.1 5.7 4zm-41.7 9.68l5.02-4.93 6.9 1.3-3.14-6.3 3.4-6.2-6.96 1-4.8-5.2-1.15 6.9-6.37 3 6.25 3.2zM211.8 92.2l4.24-5.63 7.02.3-4.04-5.75 2.45-6.6-6.7 2.07-5.52-4.4-.12 7-5.85 3.9 6.65 2.2zm-36.65 21.62l3.2-6.25 6.96-.92-4.9-4.97 1.3-6.9-6.2 3.18-6.2-3.35 1.1 7-5.1 4.9 7 1.1zm-33.2 27.08l2.2-6.66 6.74-1.96-5.7-4.16.2-7.02-5.7 4.1-6.6-2.38 2.1 6.7-4.3 5.55 7 .03zm-28.9 31.08l1.53-6.86 6.5-2.64-6.04-3.56-.5-7-5.26 4.64-6.82-1.7 2.8 6.45-3.7 6 6.98-.6zm-22.8 35.46l.15-7.03 5.88-3.8-6.64-2.3-1.84-6.8-4.26 5.6-7.02-.3 4 5.8-2.48 6.6 6.72-2zM74 246.57l-1.2-6.92 5.04-4.9-6.96-1-3.1-6.3-3.1 6.3-6.97 1 5.1 4.9-1.2 6.93 6.3-3.27zm-22.34 43.55l5.57-4.3 6.68 2.16-2.3-6.62 4.1-5.7-7 .2-4.1-5.66-1.9 6.74-6.7 2.2 5.8 3.96zm-2.05 43.64l5-4.93 6.9 1.32-3.1-6.28 3.4-6.15-6.9 1.05-4.8-5.13-1.1 6.93-6.3 2.98 6.3 3.23z"/>
  <ellipse cx="340.88" cy="316.62" fill="#9daac3" stroke="#003566" stroke-width="5.12" ry="244.43" rx="264.48"/>
  <g fill="none">
    <path d="M81.02 420.6c31.95 4.3 63.9 8.56 94.85 11.83 30.95 3.26 60.88 5.5 89.57 6.97 28.7 1.47 56.15 2.14 81.47 2.14 25.4 0 48.5-.67 71.7-1.7 23.2-1 46.4-2.35 65.8-4.04 19.5-1.68 35.3-3.7 49.6-5.5 14.3-1.8 27.1-3.4 37.5-4.85 10.4-1.46 18.3-2.8 26.1-4.16"/>
    <path stroke="#003566" stroke-width="5.16" d="M341.6 72.65c-2.96-.07-5.9-.13-9.02.6-3.12.72-6.4 2.23-9.3 4.36-2.9 2.2-5.43 4.9-8.13 8.2-2.7 3.3-5.56 7.2-7.6 10-2.02 2.8-3.2 4.6-5.14 7.3-1.9 2.7-4.5 6.4-6.8 9.8-2.2 3.4-3.9 6.5-6.1 10.8-2.2 4.4-4.8 10-7.5 16.4-2.6 6.5-5.2 13.7-7.7 20.9-2.4 7.2-4.6 14.3-6.2 20.4-1.6 6.1-2.7 11.3-3.6 15.4-.9 4.2-1.6 7.4-2.4 11.4-.7 4-1.6 8.9-2.4 14.3-.8 5.4-1.6 11.4-.5 51 1.1 39.5 4.2 112.5 6.8 151.9 2.7 39.4 4.9 45.1 7 50.4 2.1 5.3 4 10.3 6.6 16.8 2.6 6.5 6 14.6 8.9 20.8 2.9 6.2 5.3 10.5 8.4 15.1s6.7 9.5 9.9 13.4c3.3 3.9 6.3 6.8 9 9.1 2.8 2.3 5.4 4.1 8.2 5.8 2.9 1.7 6 3.4 9.1 4.2 3.1.8 6.1.8 9.1.8"/>
    <path stroke="#003566" stroke-width="5.16" d="M341.6 72.65c3.73 1.4 7.47 2.8 10.3 4.17 2.83 1.36 4.73 2.67 6.84 4.3 2.1 1.6 4.42 3.5 7.43 6.16 3 2.66 6.77 6.1 9.24 8.68 2.5 2.6 3.7 4.34 5.6 7.07 2 2.72 4.6 6.42 6.8 9.8 2.2 3.38 4 6.45 6.2 10.78 2.2 4.4 4.9 10 7.5 16.4 2.7 6.5 5.3 13.7 7.7 20.9 2.4 7.2 4.6 14.3 6.2 20.4 1.6 6.1 2.7 11.3 3.6 15.4.9 4.2 1.6 7.4 2.4 11.4.8 4.1 1.6 8.9 2.5 14.3.9 5.5 1.7 11.5.7 50.7-.9 39.3-3.8 111.7-6.4 151.1-2.6 39.4-5.1 45.6-7.2 51.2s-4.1 10.5-6.7 17c-2.6 6.5-5.9 14.6-8.8 20.8-2.9 6.2-5.3 10.5-8.3 15.1-3 4.6-6.6 9.5-9.9 13.4-3.2 3.9-6.2 6.8-9 9.1-2.7 2.3-5.3 4.1-8.2 5.8-2.8 1.7-6 3.4-9 4.2-3 .9-6.1.9-9.1.9M341.9 73c-10.3 2.67-20.5 5.35-28.8 7.7-8.3 2.35-14.6 4.4-21.13 7-6.5 2.6-13.2 5.82-18.6 8.72-5.3 2.9-9.4 5.6-12.7 8-3.35 2.4-6.23 4.7-9.4 7.4-3.12 2.7-6.85 6.1-11.46 10.5-4.6 4.4-10.2 9.9-15.2 15.8-4.9 5.85-9.2 12.04-13.4 18.34-4.2 6.3-8.4 12.7-11.9 18.58-3.5 5.86-6.3 11.15-8.7 16.2-2.4 5.07-4.4 9.9-6.5 15.2-2.1 5.3-4.2 11-5.7 15.58-1.5 4.57-2.2 7.95-.6 43.97 1.7 36 5.7 104.6 8.6 141.4 2.9 36.8 4.6 41.7 7.4 47.8 2.8 6 6.8 13.1 11.4 20.4 4.7 7.3 10.1 14.8 16 21.9 5.9 7.1 12.3 13.7 18.2 19.2 5.9 5.5 11.4 10.1 17.2 14.5s11.8 8.6 17.5 12.1c5.7 3.4 10.9 6 17 8.4 6.1 2.4 13.2 4.7 21.8 6.3 8.7 1.6 19 2.5 29.4 3.5"/>
    <path stroke="#003566" stroke-width="5.16" d="M341.6 72.65c10.3 2.67 20.6 5.35 28.9 7.7 8.3 2.35 14.6 4.38 21.14 7 6.52 2.6 13.27 5.82 18.6 8.72 5.34 2.9 9.42 5.6 12.8 8 3.36 2.43 6.24 4.74 9.38 7.44 3.15 2.7 6.87 6.1 11.5 10.5 4.6 4.4 10.22 9.9 15.18 15.8 4.95 5.9 9.22 12.1 13.44 18.4 4.22 6.3 8.38 12.7 11.87 18.6 3.5 5.9 6.3 11.2 8.8 16.2 2.4 5.1 4.5 9.9 6.6 15.2 2.1 5.3 4.2 11 5.7 15.6s2.3 8 .7 44c-1.6 36-5.7 104.7-8.5 141.5s-4.5 41.7-7.3 47.8c-2.8 6-6.7 13.1-11.4 20.4-4.6 7.3-10 14.9-16 22-5.9 7.1-12.3 13.8-18.1 19.3-5.8 5.5-11.3 10.1-17.1 14.5-5.7 4.4-11.8 8.7-17.5 12.1-5.7 3.5-10.9 6-17 8.4-6.1 2.4-13.1 4.7-21.8 6.3-8.6 1.6-19 2.6-29.3 3.5"/>
    <path stroke="#003566" stroke-width="5.16" d="M223.66 98.47c3.98 2.35 7.96 4.7 12.53 6.86 4.5 2.17 9.7 4.16 15.3 6.23 5.6 2.07 11.6 4.22 17.3 5.9 5.6 1.66 10.9 2.85 16.3 4.05 5.3 1.2 10.8 2.4 17 3.2 6.2.8 13.1 1.2 19.7 1.6 6.6.4 12.9.8 19.2.9 6.3.1 12.8-.3 19.5-.7 6.7-.4 13.7-1 20.3-1.8 6.6-.9 12.8-2 18.9-3.4 6.1-1.3 12.1-2.8 18-4.5 5.9-1.6 11.6-3.5 16.7-5.3 5.1-1.8 9.6-3.6 13.5-5.8 3.8-2.1 6.9-4.6 10-7.1m-326.3 69c16.8 7.2 33.7 14.4 48.4 19.8 14.7 5.4 27.4 9 39.1 11.7 11.7 2.7 22.5 4.6 32 6.2 9.4 1.7 17.5 3.2 25.6 4.3 8.1 1.1 16.1 1.6 23.6 2.1l21 1.3s12.9.8 19.2.9c6.4 0 12.8-.3 19.5-.7 6.7-.4 13.7-1 20.3-1.5 6.5-.5 12.6-1 19.3-1.8 6.7-.8 14-1.9 26.8-4s31.1-5.3 47.2-9.2c16.1-3.9 29.9-8.7 42.1-13.5s22.6-9.8 33-14.7m-413 301.3c15-6.5 30-13 43.9-18.1 13.8-5 26.5-8.6 38.2-11.3 11.7-2.7 22.5-4.5 32-6.2 9.5-1.7 17.6-3.2 25.7-4.2 8-1 16.1-1.6 23.6-2.1 7.4-.4 14.4-.8 21-1.2s12.9-.8 19.2-.8c6.4-.04 12.8.3 19.6.7 6.7.4 13.7 1 20.3 1.5 6.6.5 12.7 1 19.4 1.8 6.7.8 14 1.9 26.8 4s31.1 5.3 47.2 9.3c16.1 3.9 30 8.7 41.8 13.3 11.8 4.6 21.5 9 31.2 13.4M228.5 538c2.3-1.2 4.6-2.5 8.4-4.2s8.96-3.6 14.57-5.7c5.6-2 11.6-4.2 17.3-5.8 5.6-1.7 10.9-2.8 16.23-4 5.4-1.2 10.9-2.4 17.1-3.2 6.2-.8 13.14-1.2 19.74-1.6 6.7-.4 12.9-.8 19.3-.8s12.8.3 19.6.7c6.7.4 13.7 1 20.3 1.9 6.6.9 12.8 2.1 18.94 3.4 6.15 1.4 12.2 2.9 18.1 4.57 5.9 1.66 11.6 3.5 16.8 5.32 5.1 1.8 9.65 3.7 12.8 5.2 3.2 1.6 5 2.9 6.9 4.1"/>
  </g>
  <path fill="none" stroke="#003566" stroke-width="5.16" d="M341.62 561.2c0-163.2-.02-325.7-.03-488.55"/>
  <g fill="none">
    <path fill="#1e2656" d="M24.345 318.96l2.49-5.858q4.918 1.87 7.07 5.344 2.136 3.452 1.663 8.418-.585 6.144-5.15 9.702-4.584 3.555-11.864 2.862-7.702-.733-11.574-5.114-3.893-4.384-3.276-10.865.538-5.66 4.22-8.88 2.18-1.92 5.983-2.62l.886 6.3q-2.45.32-4.006 1.93-1.553 1.59-1.79 4.07-.326 3.43 1.932 5.81 2.25 2.36 7.77 2.88 5.85.55 8.53-1.31 2.68-1.87 3-5.24.23-2.49-1.17-4.42-1.41-1.94-4.73-3.04zm-3.105-10.127q-4.69-.666-7.67-2.52-2.196-1.38-3.802-3.444-1.604-2.09-2.197-4.37-.8-3.04-.27-6.79.97-6.78 5.75-10.24 4.79-3.49 12.28-2.42 7.43 1.05 11.06 5.69 3.61 4.63 2.65 11.39-.97 6.84-5.71 10.29-4.76 3.44-12.08 2.4zm.697-6.412q5.21.75 8.253-1.28 3.02-2.02 3.547-5.73.526-3.7-1.795-6.44-2.34-2.76-7.676-3.52-5.274-.75-8.2 1.21-2.92 1.94-3.466 5.77-.544 3.83 1.76 6.55 2.282 2.72 7.577 3.47zm19.24-24.83l-30.113-7.31 2.21-9.1 21.867-.47-19.22-10.39 2.22-9.12 30.12 7.32-1.37 5.65-23.71-5.76 22.26 11.73-1.43 5.85-25.15.2 23.71 5.76zm8.547-33.94l-29.082-10.7 3.234-8.79 21.78 2.02-17.92-12.51 3.242-8.81 29.08 10.7-2.006 5.46-22.892-8.42 20.768 14.2-2.08 5.66-25.01-2.67 22.892 8.42zm12.624-32.5l-28.19-12.86 2.597-5.69 28.19 12.87zm7.834-16.26l-22.675-12.2-4.355 8.1-4.617-2.48 11.663-21.69 4.617 2.48-4.345 8.08 22.675 12.2zm12.74-21.8L61.46 158.86l-5.077 7.665-4.37-2.895 13.6-20.53 4.37 2.894-5.066 7.648 21.465 14.216zm10.322-15.1L68.79 138.95l14.115-18.13 4.137 3.22-10.27 13.193 5.42 4.22 9.556-12.276 4.12 3.203-9.556 12.275 6.655 5.18 10.634-13.66 4.12 3.207zm17.096-21.93L87.6 115l15.607-16.863 3.847 3.56-11.357 12.27 5.042 4.668 10.56-11.417 3.83 3.547-10.57 11.418 6.19 5.73 11.76-12.706 3.83 3.547zm17.056-38.78q-2.866-3.77-3.684-7.18-.59-2.52-.283-5.12.32-2.61 1.5-4.65 1.56-2.73 4.57-5.02 5.45-4.14 11.28-3.24 5.85.89 10.43 6.91 4.54 5.98 3.86 11.83-.69 5.84-6.13 9.97-5.5 4.19-11.3 3.31-5.81-.89-10.29-6.78zm5.004-4.07q3.185 4.19 6.77 4.89 3.573.68 6.552-1.58 2.978-2.26 3.254-5.84.28-3.61-2.98-7.9-3.226-4.24-6.68-4.9-3.437-.68-6.516 1.67-3.08 2.34-3.352 5.89-.285 3.54 2.952 7.8zm31.443-3.95l-16.916-25.97 5.1-3.32 21.923 10.41-11.297-17.34 4.87-3.17 16.917 25.96-5.26 3.43-21.498-10.11 11.032 16.93zm34.762-21.89l-12.537-28.34 5.567-2.46 19.97 13.8-8.372-18.92 5.316-2.35 12.53 28.34-5.74 2.54-19.6-13.42L203.91 65zm54.652-19.27l-6.542 1.88-4.54-6.02-11.908 3.41-.52 7.48-6.38 1.83 3.066-33.11 6.36-1.82zm-14.45-8.61l-7.273-9.88-.856 12.21zm20.503 7.78L254 22.05l-8.996 1.895-1.08-5.13 24.095-5.077 1.08 5.13-8.98 1.89 5.31 25.194zm17.745-3.53l-5.51-30.49 6.155-1.12 5.512 30.5zm7.495-17.1q-.66-4.69.297-8.07.718-2.49 2.256-4.6 1.56-2.12 3.59-3.32 2.697-1.61 6.444-2.14 6.782-.95 11.433 2.69 4.673 3.63 5.725 11.13 1.043 7.43-2.406 12.21-3.46 4.75-10.22 5.7-6.85.96-11.47-2.64-4.63-3.62-5.66-10.95zm6.355-1.11q.73 5.21 3.518 7.58 2.783 2.34 6.488 1.82 3.71-.52 5.7-3.51 2.01-3.01 1.26-8.35-.74-5.28-3.43-7.55-2.66-2.27-6.49-1.73t-5.8 3.51q-1.97 2.95-1.23 8.25zm29.337 11.71L318.34 6.28l6.073-.376 13.93 19.876-1.27-20.657 5.8-.357 1.904 30.93-6.267.385-13.71-19.4 1.24 20.17zm58-.82l-6.804-.2-2.496-7.11-12.38-.36-2.766 6.96-6.634-.19 12.98-30.62 6.614.2zM367.09 23.8l-3.928-11.62-4.524 11.37zm13.616 13.017l3.626-30.52 6.213.74-3.01 25.335 15.45 1.84-.617 5.186zm35.874-5.1l6.047.917q-.218 3.105 1.05 4.91 1.286 1.805 4.053 2.505 2.93.74 4.717-.12 1.812-.87 2.23-2.53.27-1.07-.178-1.97-.43-.92-1.85-1.86-.98-.64-4.53-2.54-4.57-2.44-6.1-4.7-2.14-3.18-1.24-6.75.58-2.3 2.37-3.96 1.82-1.68 4.52-2.11 2.72-.43 6.18.45 5.65 1.43 7.88 4.63 2.24 3.2 1.34 7.38l-6.14-1.27q.19-2.42-.84-3.75-1.01-1.35-3.58-1.99-2.64-.67-4.41.04-1.14.45-1.43 1.62-.27 1.06.44 2.05.9 1.25 5.07 3.42 4.16 2.16 5.99 3.82 1.85 1.64 2.54 3.89.72 2.23 0 5.08-.65 2.58-2.66 4.47-2.01 1.89-4.91 2.33-2.9.42-6.81-.57-5.7-1.44-8.09-4.83-2.39-3.42-1.71-8.61zm25.956 17.24l10.375-29.2 21.66 7.694-1.75 4.94-15.75-5.6-2.3 6.48 14.66 5.21-1.75 4.92-14.66-5.21-2.82 7.95 16.31 5.79-1.75 4.92zm48.916 7.474l4.7 4.29q-3.396 4.02-7.388 4.9-3.965.87-8.493-1.22-5.6-2.59-7.44-8.08-1.83-5.51 1.24-12.15 3.25-7.02 8.67-9.22 5.43-2.22 11.34.52 5.16 2.39 6.98 6.93 1.09 2.69.49 6.51l-6.24-1.25q.51-2.42-.49-4.42-.98-1.99-3.25-3.04-3.12-1.45-6.12-.1-2.97 1.35-5.3 6.38-2.46 5.34-1.59 8.49.88 3.15 3.95 4.57 2.27 1.05 4.56.36 2.3-.68 4.44-3.44zm20.118-11.86l5.4 3.16-8.476 14.49q-2.018 3.45-2.415 4.59-.62 1.85.09 3.61.73 1.76 3 3.08 2.3 1.35 4.01 1.1 1.72-.26 2.76-1.49 1.04-1.23 2.89-4.4l8.65-14.79 5.4 3.16-8.22 14.05q-2.82 4.82-4.42 6.55-1.6 1.73-3.59 2.41-1.97.69-4.42.36-2.44-.35-5.62-2.2-3.83-2.24-5.31-4.28-1.45-2.05-1.78-4.12-.32-2.09.22-3.86.81-2.6 3.44-7.09zm10.322 42.23l18.022-25.21 10.713 7.66q4.04 2.89 5.372 4.88 1.36 1.99 1.21 4.51-.14 2.53-1.74 4.76-2.03 2.84-5.03 3.5-2.99.65-6.65-1.24.96 2.14 1.2 4.06.26 1.93-.02 6.17l-.44 7.12-6.09-4.35.24-8.11q.14-4.34-.04-5.61-.17-1.29-.78-2.14-.6-.87-2.35-2.12l-1.03-.74-7.52 10.52zm15.49-10.91l3.766 2.7q3.662 2.62 4.795 2.96 1.132.34 2.19-.04 1.056-.39 1.867-1.52.91-1.27.776-2.53-.106-1.27-1.196-2.36-.558-.53-3.653-2.74l-3.972-2.84zm8.612 28.69l19.544-24.05 4.855 3.94-19.544 24.05zm13.796 11.64l17.278-19.09-6.816-6.17 3.518-3.88 18.256 16.53-3.518 3.89-6.8-6.15-17.28 19.09zm19.045 18.31l9.51-8.92 5.322-20.56 5.018 5.35-3.95 13.71 13.83-3.18 4.93 5.26-20.913 4-9.48 8.9zm27.08 15.36l3.94 4.68q-2.21 2.19-2.45 4.38-.223 2.21 1.396 4.56 1.72 2.49 3.63 3.03 1.94.54 3.35-.43.91-.62 1.16-1.59.29-.96-.15-2.61-.31-1.12-1.72-4.89-1.82-4.85-1.48-7.55.49-3.8 3.52-5.89 1.95-1.35 4.4-1.41 2.48-.06 4.79 1.4 2.33 1.48 4.36 4.42 3.31 4.8 2.87 8.67-.43 3.89-3.86 6.43l-3.77-4.99q1.74-1.68 1.84-3.37.13-1.68-1.37-3.85-1.54-2.24-3.34-2.88-1.15-.41-2.15.27-.9.63-1.02 1.84-.15 1.54 1.56 5.91 1.7 4.37 1.98 6.82.31 2.46-.65 4.61-.93 2.15-3.35 3.82-2.19 1.51-4.94 1.61-2.75.1-5.23-1.48-2.45-1.59-4.74-4.92-3.33-4.84-2.89-8.97.46-4.14 4.398-7.59zm11.727 37.41l11.665-5.83 10.977-18.18 3.28 6.56-7.706 12 14.16.91 3.224 6.45-21.185-2.15-11.627 5.82zm17.264 12.84l2.656 5.51q-2.687 1.58-3.46 3.64-.765 2.08.22 4.76 1.043 2.84 2.76 3.83 1.74 1 3.348.41 1.032-.38 1.52-1.26.515-.86.496-2.57-.022-1.16-.46-5.17-.565-5.15.44-7.68 1.417-3.56 4.87-4.83 2.22-.82 4.605-.28 2.42.56 4.3 2.55 1.89 2.01 3.12 5.36 2.02 5.48.63 9.12-1.38 3.66-5.33 5.28l-2.43-5.77q2.11-1.2 2.62-2.81.54-1.59-.37-4.07-.94-2.56-2.53-3.62-1.01-.68-2.14-.27-1.03.38-1.44 1.53-.52 1.457.04 6.11.57 4.66.23 7.1-.31 2.46-1.77 4.3-1.43 1.86-4.19 2.87-2.5.92-5.19.34-2.69-.584-4.7-2.73-1.98-2.152-3.38-5.94-2.03-5.51-.57-9.4 1.47-3.9 6.14-6.27zm2.446 37.83l24.615-7.54-2.696-8.79 5.02-1.54 7.22 23.54-5.01 1.54-2.69-8.77-24.61 7.55zm5.288 17.52l29.975-7.86 5.83 22.22-5.07 1.33-4.243-16.17-6.645 1.75 3.948 15.05-5.05 1.33-3.948-15.04-8.158 2.14 4.39 16.74-5.05 1.33zm7.32 26.76l30.602-4.87 1.473 9.25-19.99 8.88 21.748 2.16 1.476 9.27-30.61 4.87-.92-5.74 24.09-3.83-25.06-2.24-.95-5.95 23.12-9.89-24.09 3.84zm14.705 32.57l.948 6.05q-3.028.72-4.365 2.48-1.336 1.77-1.17 4.62.18 3.01 1.534 4.46 1.377 1.46 3.087 1.36 1.09-.07 1.81-.77.74-.68 1.22-2.32.31-1.12 1.05-5.08.95-5.09 2.64-7.22 2.38-3 6.05-3.21 2.36-.14 4.49 1.07 2.14 1.23 3.37 3.68 1.22 2.47 1.43 6.04.34 5.83-2.04 8.91-2.38 3.11-6.64 3.51l-.64-6.23q2.36-.54 3.31-1.93.98-1.37.82-4.01-.16-2.72-1.37-4.196-.78-.95-1.98-.88-1.1.06-1.83 1.04-.92 1.24-1.73 5.86-.81 4.62-1.84 6.86-1.01 2.26-2.94 3.6-1.91 1.36-4.85 1.53-2.66.154-5.07-1.186t-3.71-3.976q-1.28-2.633-1.51-6.663-.35-5.867 2.17-9.17 2.54-3.3 7.69-4.22z" style="-inkscape-font-specification:'Arial Bold'" font-size="43.29" font-family="Arial" letter-spacing="-1.12" word-spacing="0" font-weight="bold"/>
    <path d="M30.682 341.44c1.74-19.9 3.5-39.8 6.75-58.68 3.2-18.86 8-36.7 14.2-53.7 6.2-17.04 13.8-33.27 22.3-47.6 8.4-14.32 17.6-26.73 26.7-38.14 9.1-11.4 18.1-21.82 30.1-32.35 12-10.53 27.1-21.2 41.3-30.45 14.2-9.27 27.6-17.16 43.9-23.33 16.3-6.2 35.5-10.7 56.3-14.6 20.8-3.9 43.2-7.3 67.4-8.1 24.2-.8 50.1 1 76.2 6.8s52.41 15.71 76.61 28.51c24.2 12.9 46.4 28.7 65.6 46 19.24 17.2 35.5 35.8 47.1 53.6 11.6 17.8 18.5 34.9 24.33 51.9 5.83 17 10.6 33.8 14.03 47.1 3.43 13.35 5.53 23.1 6.9 34.26 1.4 11.16 2.04 23.72 2.7 36.3"/>
  </g>
  <path fill="#003566" d="M93.87 232.02c-1.43 3.87-2.86 7.73-4.58 13-1.8 5.24-3.8 11.87-5.3 18.53-1.5 6.67-2.5 13.35-3.5 20.16-1 6.9-2.1 13.8-2.7 19.6-.6 5.8-.7 10.5-.1 18.3.5 7.9 1.7 18.8 2.9 27.6 1.3 8.8 2.7 15.3 4.2 21.9 1.5 6.7 3.1 13.4 11 21.1 7.9 7.7 22.1 16.4 99.9 21.7 77.7 5.3 219.1 7.1 295.6 2.1 76.5-4.9 88.2-16.6 95.1-24.1 6.9-7.6 8.9-11.1 10.8-16.4 1.9-5.3 3.6-12.5 4.8-21 1.2-8.5 1.8-18.4 2-26.4.1-8-.2-14.2-.7-21.6-.6-7.4-1.4-16-2.8-24.8-1.5-8.8-3.5-17.9-5.7-25.4s-4.5-13.6-5.9-17.3c-1.4-3.7-1.9-5.1-2.4-6.6h-493z"/>
  <path fill="#8f0f23" d="M682.92 404.72l-30.08-27.7 31.63-27.32h-78.4l.1 2.13c2.3 1.1 4.57 2.2 6.47 3.23 1.9 1.04 3.45 2.02 4.62 2.9 1.17.9 1.96 1.7 2.52 2.76.56 1.07.88 2.43.86 3.72-.02 1.3-.38 2.53-1.24 3.74-.85 1.2-2.2 2.4-6.54 4.78-4.34 2.36-11.66 5.9-21.6 9.12-9.95 3.23-22.52 6.13-35.65 8.54-13.1 2.4-26.8 4.3-41.6 6-14.8 1.66-30.9 3.1-45.9 4.3-15 1.18-28.9 2.13-49.2 2.93-20.2.8-46.8 1.43-61 1.67-14.1.24-15.9.08-33.5-.32s-51-1.04-76.8-2.15c-25.8-1.1-44.1-2.7-63.1-4.85-19-2.15-38.7-4.86-54.6-7.56-15.9-2.7-28-5.4-36.9-7.88-8.9-2.47-14.6-4.7-18.9-6.98-4.2-2.3-7-4.64-8.5-6.53-1.5-1.9-1.6-3.32-1.4-4.7.2-1.36.7-2.68 1.6-3.95.9-1.27 2.1-2.5 3.9-3.76 1.8-1.25 4.1-2.52 5.7-3.32 1.7-.8 2.7-1.1 3.7-1.43l-.3-2.9H-.1l31.13 28L.2 405h63.1c0 5.4 0 10.8.65 14.27.7 3.46 2 5 4 6.54 2 1.6 4.6 3.1 7.8 4.6 3.2 1.6 7 3.1 11.1 4.5 4.1 1.5 8.45 2.8 13.3 4 4.84 1.2 10.17 2.4 16.22 3.7 6.04 1.3 12.8 2.8 18.8 3.9 6 1.2 11.27 2 17.26 2.7 6 .8 12.7 1.5 21.8 2.4 9.1.9 20.47 2 29.8 2.8 9.4.8 16.8 1.3 24.9 1.8 8.1.6 16.9 1.2 26.05 1.7 9.17.5 18.7.8 30.24 1 11.5.3 25 .4 40.07.5 15 .2 31.7.3 47.4.1 15.8-.1 30.7-.5 46.6-1.2 15.9-.7 32.7-1.6 50-2.9 17.3-1.3 35-3 50.9-5 15.9-1.9 30-4.1 40.2-5.9 10.1-1.7 16.4-3.1 21.6-4.3 5.2-1.2 9.5-2.3 13.2-3.5 3.7-1.2 7-2.5 10-3.8 3-1.4 5.8-2.8 8-4.1 2.1-1.2 3.6-2.4 4.7-3.5 1-1 1.7-2 2.1-2.7.4-.7.5-1.2.6-3.8v-12.5l62.2-1.2z"/>
  <g fill="#f5ffff" style="line-height:1.25;-inkscape-font-specification:bebas" font-size="26.67" font-family="Arial" letter-spacing="-1.79" word-spacing="0" font-weight="bold">
    <path d="M81.45 415.25l3.767.136q.084 1.917.986 2.93.915 1.017 2.658 1.25 1.85.248 2.88-.4 1.05-.662 1.19-1.708.09-.67-.25-1.19-.32-.53-1.25-1.01-.64-.32-2.95-1.235-2.97-1.173-4.06-2.45-1.53-1.795-1.23-4.04.2-1.446 1.18-2.59 1-1.153 2.62-1.606 1.64-.45 3.82-.158 3.57.47 5.15 2.28 1.6 1.8 1.34 4.42l-3.84-.35q-.05-1.49-.77-2.24-.71-.75-2.33-.97-1.66-.22-2.7.33-.66.35-.76 1.09-.09.67.41 1.22.64.7 3.34 1.73 2.7 1.03 3.94 1.92 1.25.87 1.84 2.2.6 1.31.36 3.11-.22 1.62-1.31 2.92-1.09 1.3-2.84 1.77-1.74.46-4.21.13-3.58-.49-5.29-2.4-1.69-1.93-1.64-5.15zm20.996 9.073l1.053-7.966-5.49-11.877 4.48.592 3.46 8.077 5.35-6.92 4.4.58-8.41 10.06-1.05 7.94zm10.742-4.843l3.766.117q.095 1.916 1.002 2.926.92 1.012 2.664 1.236 1.847.23 2.876-.42 1.045-.67 1.18-1.72.086-.67-.255-1.19-.32-.53-1.26-1-.64-.32-2.95-1.22-2.97-1.16-4.07-2.43-1.54-1.79-1.25-4.04.19-1.45 1.16-2.6.99-1.16 2.62-1.62 1.64-.46 3.82-.18 3.57.46 5.16 2.25 1.61 1.79 1.36 4.41l-3.84-.32q-.06-1.49-.79-2.23-.72-.75-2.33-.96-1.67-.22-2.7.35-.66.36-.76 1.1-.08.67.42 1.22.65.7 3.35 1.72 2.71 1.01 3.94 1.9 1.26.87 1.85 2.19.61 1.31.37 3.11-.21 1.62-1.29 2.93-1.08 1.3-2.83 1.79-1.74.47-4.21.15-3.59-.46-5.3-2.37-1.71-1.92-1.67-5.14zm20.334 8.86l1.956-15.74-5.622-.7.4-3.205 15.054 1.87-.398 3.206-5.61-.69-1.955 15.74zm10.086 1.252l2.242-18.96 14.058 1.663-.38 3.207-10.23-1.21-.496 4.204 9.518 1.125-.378 3.2-9.518-1.12-.61 5.16 10.592 1.26-.378 3.2zm15.862 1.883l2.066-18.98 5.735.625 2.04 13.32 4.82-12.574 5.75.626-2.06 18.98-3.56-.39 1.63-14.938-5.39 14.53-3.69-.403-2.12-15.34-1.63 14.94zm20.017-4.08h3.768q.154 1.914 1.092 2.895.95.983 2.7 1.154 1.854.18 2.863-.506 1.023-.698 1.126-1.748.066-.674-.29-1.18-.343-.517-1.294-.963-.65-.3-2.99-1.13-3.01-1.066-4.146-2.302-1.597-1.74-1.376-3.994.14-1.45 1.08-2.62.954-1.19 2.56-1.7 1.62-.51 3.81-.29 3.578.35 5.227 2.1 1.66 1.75 1.496 4.38l-3.853-.2q-.103-1.49-.857-2.2-.74-.72-2.36-.88-1.673-.16-2.686.43-.652.38-.724 1.12-.066.68.457 1.21.667.68 3.402 1.62 2.735.94 4 1.78 1.28.84 1.91 2.14.647 1.3.47 3.1-.158 1.64-1.204 2.98-1.047 1.34-2.774 1.88-1.726.53-4.202.28-3.603-.35-5.372-2.2-1.768-1.86-1.833-5.08zm21.453 2.055l3.767-.047q.18 1.91 1.13 2.88.963.968 2.715 1.116 1.856.15 2.856-.55 1.014-.71 1.102-1.77.057-.68-.306-1.18-.35-.52-1.305-.95-.66-.29-3.01-1.09-3.03-1.03-4.18-2.25-1.62-1.72-1.43-3.98.12-1.46 1.04-2.65.94-1.2 2.54-1.74 1.61-.53 3.8-.35 3.58.3 5.25 2.02 1.68 1.72 1.55 4.35l-3.86-.16q-.13-1.49-.89-2.19-.75-.72-2.37-.86-1.67-.14-2.68.46-.65.39-.71 1.13-.06.67.47 1.2.67.67 3.42 1.57 2.74.89 4.02 1.72 1.29.81 1.94 2.11.66 1.28.51 3.09-.14 1.63-1.17 2.98-1.03 1.35-2.75 1.91-1.72.55-4.2.34-3.61-.3-5.4-2.127-1.79-1.835-1.9-5.06zm16.42 7.608l1.42-19.038 14.117 1.053-.24 3.22-10.272-.765-.315 4.22 9.558.713-.24 3.21-9.557-.71-.38 5.18 10.64.8-.24 3.21zm28.625-5.032l3.653 1.424q-1.06 3.063-3.16 4.455-2.085 1.378-5.152 1.18-3.794-.245-6.07-2.99-2.275-2.756-1.985-7.252.31-4.757 2.94-7.223 2.63-2.48 6.63-2.22 3.5.225 5.55 2.433 1.22 1.305 1.73 3.635l-3.86.663q-.24-1.5-1.26-2.43-1.01-.92-2.54-1.02-2.11-.13-3.54 1.3-1.41 1.44-1.63 4.84-.23 3.62.97 5.23 1.2 1.62 3.28 1.75 1.54.1 2.7-.8 1.17-.9 1.79-2.96zm5.815-11.73l3.85.21-.563 10.324q-.134 2.457-.03 3.193.182 1.184 1.067 1.95.898.753 2.51.84 1.64.09 2.507-.528.87-.63 1.1-1.597.22-.966.35-3.23l.58-10.544 3.85.21-.54 10.012q-.18 3.433-.57 4.833-.39 1.4-1.28 2.33-.88.92-2.32 1.43-1.43.49-3.7.37-2.73-.15-4.11-.85-1.37-.72-2.13-1.76-.76-1.06-.96-2.18-.28-1.66-.11-4.86zm16.46 20.004l.843-19.07 8.105.357q3.057.134 4.413.716 1.37.57 2.15 1.92.78 1.35.7 3.04-.09 2.148-1.42 3.497-1.32 1.337-3.85 1.59 1.22.784 1.99 1.69.79.91 2.07 3.194l2.17 3.824-4.6-.203-2.6-4.273q-1.38-2.29-1.9-2.887-.52-.61-1.12-.845-.6-.248-1.93-.306l-.78-.035-.35 7.96zm4.338-10.835l2.85.126q2.77.13 3.47-.08.7-.2 1.115-.76.416-.55.454-1.41.042-.96-.452-1.57-.48-.62-1.41-.82-.467-.08-2.808-.19l-3.006-.13zM285.6 441.04l.71-19.078 3.852.143-.71 19.078zm10.015.353l.493-15.854-5.662-.18.1-3.23 15.164.47-.1 3.23-5.65-.18-.492 15.85z" style="line-height:1.25;-inkscape-font-specification:'Arial Bold'"/>
    <path d="M310.787 441.81l.175-8.03-6.75-11.207 4.517.098 4.32 7.65 4.56-7.45 4.44.1-7.26 10.93-.18 8.01zm16.173.3l.162-19.09 13.087.11-.03 3.23-9.24-.078-.04 4.518 7.97.067-.03 3.23-7.97-.067-.07 8.113zm13.676-9.302q-.01-2.917.858-4.9.646-1.46 1.763-2.622 1.13-1.162 2.47-1.726 1.78-.76 4.112-.768 4.21-.013 6.75 2.597t2.56 7.27q.01 4.62-2.49 7.25-2.51 2.61-6.71 2.62-4.26.01-6.78-2.57-2.52-2.6-2.54-7.16zm3.97-.142q.01 3.242 1.514 4.918 1.502 1.662 3.807 1.655 2.305-.01 3.772-1.67 1.47-1.67 1.46-4.99-.01-3.28-1.46-4.89-1.44-1.61-3.82-1.61-2.39 0-3.84 1.65-1.46 1.63-1.45 4.92zm15.794 9.494l-.297-19.09 8.112-.126q3.06-.048 4.45.452 1.4.486 2.254 1.788.85 1.302.88 2.995.03 2.14-1.21 3.57-1.24 1.41-3.75 1.81 1.26.71 2.08 1.57.83.86 2.25 3.06l2.39 3.69-4.61.07-2.85-4.11q-1.52-2.2-2.08-2.77-.56-.58-1.17-.78-.62-.22-1.95-.19l-.78.01.12 7.97zm3.683-11.077l2.852-.044q2.773-.05 3.46-.29.686-.25 1.068-.83t.368-1.44q-.01-.97-.54-1.54-.51-.59-1.45-.73-.47-.06-2.81-.02l-3.01.04zm23.687 10.52l-.47-15.853-5.663.167-.096-3.228 15.17-.45.1 3.22-5.65.17.47 15.85zm10.17-.306l-.737-19.077 3.85-.15.292 7.51 7.547-.292-.29-7.51 3.85-.147.74 19.08-3.853.15-.33-8.34-7.55.29.32 8.34zm17.457-.69l-.87-19.07 14.14-.646.147 3.23-10.29.47.193 4.23 9.575-.44.146 3.22-9.574.44.237 5.19 10.66-.48.15 3.22zm32.953-5.055l.19 3.393-12.81.71q.103-1.937 1.048-3.71.945-1.788 3.856-4.805 2.343-2.438 2.857-3.288.7-1.173.63-2.278-.06-1.223-.76-1.836-.68-.627-1.84-.563-1.14.063-1.78.79-.64.726-.65 2.33l-3.66-.16q.16-3.036 1.8-4.444 1.65-1.4 4.22-1.55 2.82-.15 4.52 1.28 1.7 1.43 1.82 3.7.08 1.29-.33 2.49-.39 1.18-1.32 2.51-.61.88-2.25 2.57-1.64 1.68-2.08 2.23-.42.55-.68 1.06zm10.23 2.765l-3.653.23-.87-13.762q-1.883 1.998-4.542 3.066l-.21-3.31q1.4-.56 2.995-1.96 1.593-1.42 2.107-3.2l2.963-.18zm2.895-4.13l3.622-.825q.31 1.048 1.066 1.555.754.493 2.04.4 1.416-.104 2.092-.675.454-.4.41-1.01-.03-.415-.31-.67-.292-.24-1.256-.39-4.49-.653-5.73-1.372-1.72-.998-1.86-2.985-.14-1.792 1.19-3.116 1.32-1.33 4.3-1.55 2.83-.21 4.27.61 1.44.82 2.09 2.59l-3.4.88q-.28-.79-.93-1.18-.64-.39-1.79-.3-1.44.1-2.04.55-.4.31-.36.77.02.39.41.63.52.32 3.48.78 2.97.45 4.19 1.32 1.21.89 1.34 2.63.14 1.89-1.35 3.37-1.49 1.48-4.59 1.7-2.82.2-4.55-.82-1.72-1.03-2.37-2.95zm19.78-11.43l.24 2.908-2.492.204.457 5.55q.138 1.69.227 1.97.1.26.362.42.27.16.63.13.5-.04 1.43-.47l.54 2.8q-1.23.65-2.84.78-.99.08-1.81-.18-.82-.27-1.24-.76-.41-.5-.63-1.39-.17-.63-.33-2.56l-.5-6.01-1.68.13-.24-2.91 1.67-.14-.23-2.74 3.48-2.43.4 4.86zm18.965 5.025l3.837.803q-.54 3.196-2.382 4.913-1.83 1.704-4.888 2.014-3.783.383-6.48-1.95-2.698-2.344-3.152-6.827-.48-4.74 1.704-7.607 2.18-2.878 6.17-3.282 3.48-.352 5.87 1.487 1.42 1.087 2.3 3.302l-3.71 1.29q-.49-1.442-1.65-2.188-1.15-.748-2.68-.593-2.12.214-3.28 1.863-1.16 1.65-.81 5.043.36 3.602 1.81 5 1.45 1.398 3.52 1.188 1.53-.155 2.53-1.238 1-1.084 1.27-3.218zm5.94 6.42l-2.225-18.96 14.06-1.652.375 3.208-10.23 1.2.493 4.204 9.52-1.117.375 3.195-9.52 1.117.606 5.16 10.593-1.243.375 3.195zm15.97-1.906l-2.374-18.943 3.72-.466 9.34 11.68-1.586-12.65 3.553-.446 2.373 18.95-3.837.48-9.19-11.39 1.54 12.36zm21.572-2.71l-1.994-15.736-5.62.712-.406-3.204 15.05-1.908.407 3.204-5.61.71 1.99 15.736zm7.538-20.186l3.82-.506 1.36 10.25q.325 2.44.563 3.144.4 1.13 1.41 1.717 1.023.574 2.623.36 1.627-.215 2.366-.983.737-.78.776-1.77.04-.992-.26-3.238l-1.39-10.47 3.822-.506 1.32 9.94q.452 3.408.33 4.856-.124 1.448-.834 2.528-.698 1.078-2.015 1.844-1.31.753-3.56 1.05-2.71.36-4.2-.072-1.48-.447-2.42-1.333-.94-.89-1.35-1.96-.59-1.57-1.01-4.75zm19.886 16.627l-2.878-18.872 8.02-1.224q3.025-.46 4.468-.15 1.454.29 2.477 1.47 1.022 1.18 1.277 2.85.324 2.13-.713 3.71-1.038 1.57-3.468 2.31 1.34.54 2.27 1.28.94.74 2.64 2.73l2.86 3.33-4.56.7-3.38-3.68q-1.81-1.98-2.43-2.46-.63-.49-1.27-.61t-1.96.08l-.77.12 1.2 7.88zm2.15-11.472l2.82-.43q2.74-.418 3.388-.754.647-.33.947-.96.3-.62.17-1.47-.14-.95-.74-1.45-.59-.51-1.54-.52-.47.01-2.79.36l-2.97.46z" style="line-height:1.25;-inkscape-font-specification:'Arial Bold'"/>
    <path d="M592.34 422.645l-1.37-7.917-8.78-9.7 4.454-.77 5.716 6.674 3.047-8.194 4.376-.758-5.024 12.118 1.36 7.89z" style="line-height:1.25;-inkscape-font-specification:'Arial Bold'"/>
  </g>
  <path fill="#fffff9" d="M250.16 271.65l-6.88-22.7c-11.55.9-23.1 1.77-31.03 2.6-7.92.84-12.22 1.64-15.72 2.67-3.5 1.04-6.2 2.3-9.35 4.27-3.15 1.9-6.88 4.7-10 7.8-3.1 3.1-5.63 6.6-7.3 11-1.68 4.3-2.47 9.6-2.8 15.2-.3 5.5-.15 11.4 1.04 18.3 1.2 6.9 3.42 14.9 5.9 22.4 2.46 7.5 5.16 14.5 8.43 20.1 3.26 5.6 7.08 9.9 10.5 13.3s6.44 6 9.4 8c2.93 2 5.8 3.6 9.3 4.9 3.5 1.2 7.64 2.2 14.06 2.6 6.5.4 15.2.3 23.9.3l3.8-27.5c-6.9.6-13.9 1.2-19.4.8-5.4-.5-9.4-2.1-13.2-5.1-3.7-3.1-7.2-7.5-9.8-12.7-2.6-5.3-4.4-11.4-5.6-17.6-1.2-6.3-1.8-12.8-2.3-18-.5-5.2-.8-9-.5-13 .3-4 1.1-8.1 2.6-10.8 1.5-2.7 3.8-4 6.1-4.9 2.4-1 5.3-1.7 8.7-2 3.4-.4 7.6-.6 12.7-.6 5.2 0 11.4.1 17.6.3z"/>
  <path fill="#fff" d="M256.55 382.8V253.2h23.97l35.78 36.46v-36.12h27.35v107c9.1 0 18.23 0 24.42-.32 6.2-.33 9.67-1.03 12.5-2.54 2.8-1.52 5.05-3.9 6.34-6.36 1.3-2.48 1.7-5.07.7-8.05-1-2.98-3.3-6.35-10.6-16.76-7.2-10.4-19.4-27.8-25.5-37.9-6-10.1-6-12.8-5.7-15.6.3-2.8.9-5.7 2.6-8.4 1.7-2.7 4.5-5.1 6.8-7 2.3-1.8 4.1-3.1 6.1-3.9 1.9-.8 4-1.3 10.8-1.5 6.9-.2 18.4-.2 30-.2l11.8 18.9c-9.4 0-18.9 0-24.3.5s-6.9 1.4-8.3 2.5c-1.4 1.1-2.7 2.3-3.2 3.9-.4 1.6 0 3.5 1 5.5s2.6 4 9 12.6 17.5 23.8 23.5 32.6c6 8.7 6.9 11 7.6 13.7.6 2.8 1 6.3.6 9.9-.4 3.7-1.7 7.8-3.4 11.6s-4 7.3-6.9 10.2c-2.9 3-6.5 5.5-9.3 6.8-2.7 1.4-4.6 1.6-21.4 1.7-16.8.1-48.4.1-80 .1L288 361.9h30.7v-28.7l-32.4-34.44v84.06h-29.7z"/>
  <path fill="#fff" d="M419.25 361.25c7.26-.17 14.5-.34 19.78-.75 5.26-.4 8.74-1.1 11.56-2.63 2.8-1.52 5-3.88 6.3-6.36 1.3-2.4 1.6-5 .6-8s-3.4-6.3-10.7-16.7c-7.3-10.4-19.4-27.8-25.5-37.9-6.1-10.1-6.1-12.8-5.8-15.6.2-2.8.8-5.7 2.5-8.4s4.5-5.2 6.8-7c2.3-1.8 4.1-3.1 6-3.9 1.9-.8 3.9-1.3 10.8-1.5 6.8-.2 18.3-.2 29.9-.2l11.8 18.9c-9.5 0-18.9 0-24.4.5s-7 1.4-8.4 2.5c-1.4 1.1-2.8 2.3-3.2 3.9-.5 1.6 0 3.5 1 5.5s2.6 4 8.9 12.6c6.4 8.6 17.5 23.8 23.5 32.5s6.9 11 7.5 13.8c.6 2.8.9 6.3.5 9.9-.5 3.7-1.7 7.9-3.5 11.6-1.7 3.8-4 7.3-6.9 10.3-2.9 3-6.5 5.5-15.2 6.9-8.7 1.4-22.4 1.8-36.1 2.1l-8.3-21.4z"/>
</svg>
